<svg class="svg-icon" style="width: 1em; height: 1em;vertical-align: middle;fill: currentColor;overflow: hidden;" viewBox="0 0 1024 1024" version="1.1" xmlns="http://www.w3.org/2000/svg"><path d="M345.8 365c1.4 0 2.7-0.3 4.1-1l8.5-4.3c4.5-2.3 6.4-7.8 4.1-12.4-2.3-4.6-7.8-6.4-12.2-4.2l-8.5 4.3c-4.5 2.3-6.4 7.8-4.1 12.4 1.5 3.3 4.8 5.2 8.1 5.2zM290.2 397.2c1.4 0 2.7-0.3 4.1-1l8.5-4.3c4.5-2.3 6.4-7.8 4.1-12.4-2.3-4.6-7.8-6.4-12.2-4.2l-8.5 4.3c-4.5 2.3-6.4 7.8-4.1 12.4 1.5 3.4 4.7 5.2 8.1 5.2zM343 415.8c1.4 0 2.7-0.3 4.1-1l8.5-4.3c4.5-2.3 6.4-7.8 4.1-12.4-2.3-4.6-7.8-6.4-12.2-4.2l-8.5 4.3c-4.5 2.3-6.4 7.8-4.1 12.4 1.5 3.3 4.7 5.2 8.1 5.2z" fill="#333333" /><path d="M805.8 512.8l-46-6.5c16.4-21 7-42.5 2.5-50 17.1-14.4 27.1-31.8 27.1-52.8 0-76.2-137.1-145.5-287.6-145.5s-287.6 69.4-287.6 145.5c0 19.4 8.6 35.7 23.4 49.4-5.9 8.5-15.9 24.7-4.2 46.2-44.2 4.9-45.7 44.9-37.5 61.7 5 10.1 18 20.3 35.9 21.8-2.1 5.9-7.3 30.3 10.3 48-13.1 14.5-13.7 29.5-13.7 37 0 64 139.3 98.6 270.3 98.6 131.1 0 270.6-34.5 270.3-98.6-0.1-17.4-15.4-35.6-15.2-35.7 23.5-20.3 14.8-47 8.3-54.1 9.2-4.2 18.4-8.3 27.3-12.3 29.7-12.4 44-24.6 42.4-36.4-1.7-13.3-19.5-15.5-26-16.3z m-58.7-33.3c0 36.1-102 76.3-248.4 76.3s-248.4-40.2-248.4-76.3c0-4.2 1.9-8.6 4.9-13 53.7 33.9 152.3 47.3 246.6 47.3 91.8 0 187.5-12.7 242.1-44.7 1.9 3.4 3.2 6.9 3.2 10.4zM501.8 280.2c149.6 0 265.7 66.3 265.7 123.3 0 52.6-106.8 87.9-265.7 87.9s-265.7-35.3-265.7-87.9c0-57 116.1-123.3 265.7-123.3zM212.3 552.5c-5-9.7-2.3-41 35.2-35.1 34.4 32.2 111.5 52.1 194.2 58.4 9.2 4.2 49.2 22.4 84.4 38.8-14.3 4.3-23.4 11.7-23.9 12.1-15.4 11.5-36.4 8.4-36.7 8.3-21.4-2.5-36.1-19.3-40.2-23-21.5-20.3-47.3-8.1-52.9-4.6-17.4 10.5-34.3 11.3-34 11.3-29.6 0.3-37.5-22-37.6-22.2-5.6-14-7.2-19-11.3-26.3-11.3-18.4-38.4-9.1-41-8.1-10.9 3.3-28.8 4.9-36.2-9.6z m534.8 114.9c0 36.1-102 76.3-248.4 76.3s-249.4-40.2-248.4-76.3c0.4-13.5 8.5-23.5 9.1-23.1 48.3 31.3 145.7 47.8 239.3 47.8 92.7 0 189.2-16.3 238-47 0.8-0.5 10.4 10.1 10.4 22.3z m0-67.6c0 33.1-106.2 70.1-248.4 70.1S252.4 635 250.4 599.8c-1.5-25.7 20.6-25 24-20 0 0.1 3.8 5.1 10.4 23.4 2.9 7.8 13.1 34.8 53.9 34.2 0.9 0 21.6-0.8 42.9-13.8 2.8-1.3 19.5-10.3 30.5 1.1 2.8 2.6 21.4 25.8 51.2 28.8 13.2 1.4 33.6 0 49.9-11.8 1.7-1.1 26.8-20.9 57.8-5.4 9.2 4.6 27.4 17.8 54.8 5.7 0.7-0.3 56.9-27.5 116.1-54.8 3.4 4.2 5.2 8.5 5.2 12.6z m-128.9 25.1c-11.8 5-26.8 1.1-36.4-4-18.9-9.3-59-28.3-90.9-43 105.8 2.4 207.2-19 253.1-55.1 0 0 65.2 9.3 67 9.8-5 9.4-192.3 92-192.8 92.3z" fill="#333333" /></svg>